<svg width="219" height="46" viewBox="0 0 219 46" fill="none" xmlns="http://www.w3.org/2000/svg">
<path d="M79.5051 22.8366L78.5147 19.8274H71.3419L70.3515 22.8366H67.2432L72.611 6.4917H77.2414L82.6178 22.8366H79.5094H79.5051ZM72.1479 17.3996H77.7087L74.9219 8.95342L72.1479 17.3996Z" fill="#DA9694"/>
<path d="M90.4551 20.6381C91.184 20.6381 91.8485 20.4683 92.4402 20.1246C93.0361 19.7808 93.5035 19.2884 93.8507 18.6433L96.4532 19.7256C95.9001 20.7357 95.0855 21.5379 94.0137 22.1236C92.9418 22.7093 91.7542 23.0064 90.4551 23.0064C89.1561 23.0064 88.0413 22.7391 86.9909 22.2085C85.9405 21.678 85.0959 20.9013 84.4571 19.8911C83.8182 18.8767 83.501 17.718 83.501 16.4193C83.501 15.1205 83.8182 13.9618 84.4571 12.9474C85.0959 11.933 85.9405 11.1563 86.9909 10.6215C88.0413 10.0867 89.1989 9.81934 90.4551 9.81934C91.7113 9.81934 92.9418 10.1164 94.018 10.7064C95.0941 11.2964 95.9087 12.1028 96.4532 13.1129L93.8507 14.1867C93.5035 13.5416 93.0361 13.045 92.4402 12.7055C91.8442 12.3617 91.184 12.1919 90.4551 12.1919C89.319 12.1919 88.3543 12.5909 87.5654 13.3888C86.7765 14.1867 86.3778 15.1969 86.3778 16.4193C86.3778 17.6416 86.7723 18.6518 87.5654 19.4455C88.3586 20.2392 89.319 20.6381 90.4551 20.6381Z" fill="#DA9694"/>
<path d="M105.148 9.81079C106.16 9.81079 107.103 9.9933 107.973 10.3583C108.844 10.7233 109.586 11.2284 110.203 11.8735C110.816 12.5187 111.283 13.3166 111.609 14.2673C111.935 15.2181 112.064 16.2537 111.999 17.3784H101.165C101.367 18.3801 101.834 19.195 102.571 19.8104C103.309 20.4301 104.166 20.7399 105.152 20.7399C105.997 20.7399 106.747 20.5235 107.403 20.0863C108.059 19.6491 108.561 19.0464 108.904 18.2782L111.369 19.4539C110.799 20.5574 109.959 21.4275 108.835 22.0642C107.712 22.7008 106.486 23.0234 105.152 23.0234C104.218 23.0234 103.326 22.8663 102.481 22.5523C101.637 22.2382 100.899 21.7968 100.265 21.2365C99.6302 20.6763 99.1286 19.976 98.7556 19.1441C98.3826 18.3122 98.1982 17.4039 98.1982 16.4235C98.1982 15.443 98.3826 14.5347 98.7556 13.7028C99.1286 12.871 99.6302 12.1706 100.265 11.6061C100.899 11.0417 101.637 10.6002 102.481 10.2819C103.326 9.96359 104.218 9.81079 105.152 9.81079H105.148ZM105.148 12.0985C104.119 12.0985 103.245 12.4041 102.524 13.0195C101.804 13.6349 101.345 14.4498 101.152 15.46H109.157C108.964 14.4413 108.509 13.6264 107.785 13.0153C107.065 12.4041 106.186 12.0985 105.148 12.0985Z" fill="#DA9694"/>
<path d="M131.172 9.81079C132.077 9.81079 132.849 9.95935 133.483 10.2565C134.118 10.5536 134.615 10.9992 134.98 11.5892C135.344 12.1791 135.606 12.871 135.768 13.6519C135.931 14.4329 136.009 15.3581 136.009 16.4235V22.8409H132.69V16.4235C132.69 15.1714 132.476 14.2206 132.047 13.5755C131.618 12.9304 130.928 12.6078 129.985 12.6078C128.977 12.6078 128.193 12.9516 127.631 13.6434C127.065 14.3352 126.786 15.2605 126.786 16.4235V22.8409H123.472V16.4235C123.472 15.1714 123.258 14.2206 122.829 13.5755C122.4 12.9304 121.71 12.6078 120.758 12.6078C119.751 12.6078 118.97 12.9516 118.409 13.6434C117.847 14.3352 117.568 15.2605 117.568 16.4235V22.8409H114.25V10.006H117.427L117.564 11.8863C118.272 10.5026 119.734 9.81079 121.95 9.81079C124.167 9.81079 125.53 10.7148 126.22 12.5229C127.112 10.7148 128.763 9.81079 131.172 9.81079Z" fill="#DA9694"/>
<path d="M146.959 10.0017H150.564L145.625 22.6328C144.948 24.3136 144.035 25.5062 142.877 26.2193C141.719 26.9281 140.214 27.1997 138.358 27.0215L138.187 24.6064C140.36 24.6531 141.535 24.0632 141.711 22.8408L136.78 10.006H140.395L143.674 20.0353L146.954 10.006L146.959 10.0017Z" fill="#DA9694"/>
<path d="M158.981 9.79794C160.031 9.79794 161 9.9762 161.888 10.3285C162.775 10.6808 163.53 11.1816 164.156 11.8267C164.782 12.4719 165.253 13.2868 165.566 14.2672C165.879 15.2477 165.995 16.33 165.914 17.5141H155.873C156.07 18.2823 156.456 18.8935 157.026 19.3477C157.592 19.8018 158.248 20.031 158.985 20.031C160.297 20.031 161.275 19.4028 161.909 18.1508L165.202 19.7339C164.602 20.7738 163.749 21.5844 162.634 22.1617C161.519 22.7389 160.306 23.0275 158.985 23.0275C158.025 23.0275 157.116 22.879 156.263 22.5776C155.405 22.2763 154.651 21.8518 153.999 21.2958C153.347 20.7398 152.829 20.0437 152.443 19.2034C152.057 18.363 151.868 17.4335 151.868 16.4148C151.868 15.3962 152.061 14.4667 152.443 13.6221C152.824 12.7775 153.343 12.0814 153.999 11.5296C154.651 10.9779 155.405 10.5534 156.263 10.2478C157.12 9.94224 158.025 9.7937 158.985 9.7937L158.981 9.79794ZM161.005 13.4735C160.456 13.0194 159.778 12.7944 158.977 12.7944C158.175 12.7944 157.498 13.0194 156.949 13.465C156.4 13.9107 156.036 14.5346 155.86 15.3241H162.102C161.918 14.5431 161.553 13.9234 161.005 13.4735Z" fill="#DA9694"/>
<path d="M180.4 10.0017L176.07 16.4191L180.4 22.8365H176.083L173.262 18.6177L170.428 22.8365H166.098L170.436 16.4191L166.098 10.0017H170.428L173.262 14.2078L176.083 10.0017H180.4Z" fill="#DA9694"/>
<path d="M186.596 9.7981C187.608 9.7981 188.495 9.96362 189.25 10.2989C190.004 10.6342 190.562 11.1011 190.913 11.6996L191.076 10.0018H194.772V22.8367H191.076L190.913 21.1262C190.232 22.3953 188.791 23.0319 186.596 23.0319C185.477 23.0319 184.457 22.756 183.539 22.2043C182.622 21.6525 181.893 20.8715 181.357 19.8614C180.821 18.8512 180.551 17.7053 180.551 16.4192C180.551 15.1332 180.821 13.9873 181.357 12.9771C181.893 11.967 182.622 11.1817 183.539 10.63C184.457 10.074 185.477 9.7981 186.596 9.7981ZM185.361 18.8555C185.983 19.4836 186.75 19.7977 187.664 19.7977C188.577 19.7977 189.349 19.4836 189.97 18.8555C190.596 18.2273 190.909 17.4167 190.909 16.4235C190.909 15.4303 190.596 14.6154 189.97 13.9915C189.344 13.3633 188.577 13.0493 187.664 13.0493C186.75 13.0493 185.983 13.3633 185.361 13.9915C184.74 14.6197 184.427 15.4303 184.427 16.4235C184.427 17.4167 184.74 18.2316 185.361 18.8555Z" fill="#DA9694"/>
<path d="M214.172 9.7981C215.085 9.7981 215.857 9.94665 216.487 10.2438C217.117 10.5409 217.615 10.9865 217.979 11.5765C218.344 12.1707 218.605 12.854 218.764 13.635C218.922 14.4117 219 15.3412 219 16.4235V22.8409H215.132V16.4235C215.132 14.174 214.344 13.0493 212.761 13.0493C211.895 13.0493 211.222 13.3506 210.742 13.9575C210.262 14.5602 210.022 15.3836 210.022 16.4235V22.8409H206.155V16.4235C206.155 15.32 205.966 14.4838 205.589 13.9108C205.211 13.3379 204.615 13.0493 203.805 13.0493C202.939 13.0493 202.266 13.3506 201.786 13.9575C201.306 14.5602 201.065 15.3836 201.065 16.4235V22.8409H197.198V10.0061H200.894L201.065 11.7038C201.734 10.4348 203.119 9.7981 205.224 9.7981C207.329 9.7981 208.766 10.6767 209.452 12.4296C210.335 10.6724 211.913 9.7981 214.185 9.7981H214.172Z" fill="#DA9694"/>
<path d="M86.4531 32.989H89.9559V34.1732H87.6665V35.3234H89.9559V36.4863H87.6665V38.1586H89.9559V39.347H86.4531V32.989Z" fill="#DA9694"/>
<path d="M99.127 32.9889H100.576C101.511 32.9889 102.201 33.1035 102.655 33.3327C103.11 33.5619 103.483 33.9354 103.775 34.4489C104.066 34.9625 104.216 35.5652 104.216 36.2528C104.216 36.7409 104.135 37.1907 103.972 37.6024C103.809 38.0141 103.582 38.3537 103.29 38.6253C103.003 38.897 102.685 39.0837 102.351 39.1856C102.017 39.2874 101.429 39.3426 100.598 39.3426H99.127V32.9846V32.9889ZM100.34 34.1561V38.1669H100.906C101.464 38.1669 101.871 38.1033 102.12 37.976C102.373 37.8486 102.578 37.6364 102.737 37.3351C102.896 37.0337 102.977 36.6645 102.977 36.2273C102.977 35.5524 102.788 35.0304 102.407 34.6569C102.064 34.3216 101.511 34.1561 100.752 34.1561H100.336H100.34Z" fill="#DA9694"/>
<path d="M113.365 32.9889H114.591V37.0974C114.591 37.4497 114.621 37.7001 114.686 37.8486C114.75 37.9972 114.853 38.1118 114.994 38.2009C115.136 38.29 115.312 38.3325 115.518 38.3325C115.732 38.3325 115.921 38.2815 116.075 38.1839C116.229 38.0863 116.336 37.9632 116.396 37.8104C116.456 37.6576 116.486 37.369 116.486 36.9446V32.9846H117.713V36.7748C117.713 37.4157 117.678 37.8571 117.605 38.1075C117.533 38.3537 117.395 38.5956 117.19 38.8248C116.984 39.054 116.748 39.228 116.482 39.3384C116.216 39.4487 115.903 39.5039 115.548 39.5039C115.08 39.5039 114.677 39.3978 114.334 39.1856C113.991 38.9734 113.743 38.7102 113.592 38.3919C113.442 38.0736 113.37 37.5345 113.37 36.779V32.9889H113.365Z" fill="#DA9694"/>
<path d="M133.061 34.1051L132.208 34.9115C131.625 34.3046 130.973 33.999 130.244 33.999C129.631 33.999 129.113 34.2069 128.692 34.6229C128.272 35.0388 128.062 35.5482 128.062 36.1593C128.062 36.5838 128.156 36.9573 128.341 37.2883C128.525 37.6194 128.791 37.874 129.13 38.0608C129.468 38.2475 129.846 38.3409 130.262 38.3409C130.617 38.3409 130.939 38.273 131.235 38.1457C131.526 38.0141 131.852 37.7764 132.204 37.4284L133.031 38.2857C132.555 38.7441 132.109 39.0624 131.685 39.2407C131.265 39.419 130.78 39.5081 130.24 39.5081C129.241 39.5081 128.427 39.194 127.788 38.5701C127.153 37.942 126.836 37.1398 126.836 36.1593C126.836 35.5269 126.982 34.9624 127.269 34.4701C127.561 33.9777 127.972 33.583 128.512 33.2817C129.053 32.9803 129.631 32.8318 130.257 32.8318C130.789 32.8318 131.295 32.9421 131.788 33.1628C132.277 33.3835 132.701 33.6976 133.057 34.1093L133.061 34.1051Z" fill="#DA9694"/>
<path d="M144.118 32.989H145.357L147.827 39.347H146.558L146.056 38.0398H143.437L142.914 39.347H141.645L144.123 32.989H144.118ZM144.744 34.674L143.883 36.8556H145.602L144.744 34.674Z" fill="#DA9694"/>
<path d="M156.166 32.989H159.716V34.1817H158.546V39.347H157.306V34.1817H156.166V32.989Z" fill="#DA9694"/>
<path d="M168.492 32.989H169.706V39.347H168.492V32.989Z" fill="#DA9694"/>
<path d="M182.139 32.8276C183.048 32.8276 183.829 33.1544 184.485 33.8038C185.136 34.4532 185.466 35.2469 185.466 36.1849C185.466 37.1229 185.145 37.8996 184.498 38.5405C183.854 39.1814 183.07 39.504 182.148 39.504C181.226 39.504 180.382 39.1729 179.747 38.515C179.108 37.8572 178.791 37.072 178.791 36.1637C178.791 35.5567 178.941 34.9965 179.237 34.4872C179.533 33.9779 179.94 33.5746 180.463 33.2733C180.982 32.9762 181.544 32.8276 182.144 32.8276H182.139ZM182.127 34.0118C181.531 34.0118 181.033 34.2155 180.626 34.6272C180.219 35.0389 180.017 35.5567 180.017 36.1849C180.017 36.8895 180.27 37.4455 180.78 37.8529C181.175 38.1712 181.629 38.3325 182.144 38.3325C182.723 38.3325 183.216 38.1246 183.623 37.7086C184.03 37.2927 184.236 36.7833 184.236 36.1764C184.236 35.5695 184.03 35.0601 183.619 34.64C183.207 34.2198 182.71 34.0118 182.118 34.0118H182.127Z" fill="#DA9694"/>
<path d="M194.649 32.989H195.82L198.568 37.1697V32.989H199.79V39.347H198.615L195.871 35.1791V39.347H194.649V32.989Z" fill="#DA9694"/>
<path d="M54.4885 39.4001H46.1538L43.0283 32.8002L0 46L29.4544 0V1.67651L10.6242 38.165L47.4057 26.9175L54.4885 39.4001Z" fill="#DA9694"/>
<path d="M59.8782 17.6097L29.875 24.4176L34.3253 15.1353L38.8614 23.0255L45.5026 21.5569L37.9996 8.63721H30.9683L18.9336 31.3019L59.8782 17.6097Z" fill="#DA9694"/>
</svg>
