<svg width="105" height="58" viewBox="0 0 105 58" fill="none" xmlns="http://www.w3.org/2000/svg">
<g clip-path="url(#clip0_4695_807)">
<path d="M25.0233 25.2787C25.7056 25.0383 26.3839 24.9083 27.0848 24.9213C28.3188 24.944 29.4384 25.3199 30.4337 26.0722C30.6003 26.1981 30.7591 26.3351 30.9386 26.4808C31.3997 25.6296 32.0062 24.9285 32.7773 24.3804C33.5499 23.8313 34.4128 23.5245 35.3543 23.3878C35.5523 21.0571 36.3842 19.017 37.9302 17.3027C39.2362 15.8546 40.8172 14.845 42.6907 14.3961C46.4387 13.4979 49.6501 14.537 52.3603 17.3204C54.5092 15.6594 56.7828 15.5069 59.1737 16.8422C60.0901 14.3723 61.6564 12.4842 63.9342 11.2334C65.4327 10.4105 67.0421 10.0202 68.7307 10.0494C71.0799 10.0899 73.1864 10.872 74.9965 12.4226C76.8059 13.9726 77.9269 15.9529 78.4127 18.3186C78.7535 18.487 79.1046 18.6372 79.434 18.8269C81.2816 19.8915 82.463 21.4827 82.9652 23.5939C83.1626 24.4235 83.2134 25.2666 83.0994 26.1163C83.0857 26.2184 83.1087 26.2952 83.1917 26.3725C84.5082 27.598 85.3963 29.0926 85.8488 30.8565C86.1324 31.9617 86.1871 33.0818 86.0715 34.2174C85.9605 35.3073 85.653 36.3347 85.1759 37.3086C84.7854 38.1056 84.2816 38.8224 83.6799 39.4717C83.0181 40.1858 82.2639 40.7678 81.4253 41.2404C81.352 41.2818 81.2724 41.3114 81.1506 41.3671C81.1506 41.2344 81.1506 41.1328 81.1506 41.0312C81.1506 38.863 81.1593 36.6947 81.1473 34.5265C81.1402 33.2404 80.67 32.1379 79.809 31.206C79.0922 30.4299 78.218 29.9472 77.1986 29.747C76.9209 29.6924 76.6329 29.6721 76.3496 29.6716C74.6696 29.6687 73.0495 29.3635 71.4726 28.7602C69.2558 27.9121 67.0295 27.0896 64.7995 26.2784C63.6242 25.8509 62.4107 25.5666 61.1683 25.4318C60.6687 25.3776 60.1665 25.3239 59.6649 25.3176C57.6658 25.2925 55.6661 25.2552 53.6673 25.2806C51.1811 25.3122 48.8717 26.0051 46.7567 27.3645C45.4996 28.1725 44.2334 28.9661 42.9619 29.7501C41.8198 30.4543 40.5777 30.8423 39.247 30.9617C37.2225 31.1433 35.2167 31.4526 33.2351 31.9265C30.9895 32.4635 28.8002 33.173 26.6864 34.1192C25.745 34.5407 24.8027 34.9693 23.9481 35.559C22.4451 36.5964 21.5665 38.0453 21.335 39.8934C21.2916 40.2399 21.281 40.5907 21.2552 40.9389C19.8237 40.678 17.8786 39.1525 17.4698 36.6924C17.0563 34.2045 18.3512 31.4199 21.2419 30.525C21.4881 28.01 22.7208 26.2541 25.0233 25.2787ZM69.8532 15.4696C69.9889 15.4222 70.1245 15.3748 70.2788 15.3209C69.3784 15.0944 68.8235 14.527 68.5965 13.581C68.3789 14.5451 67.8058 15.0988 66.8998 15.3264C67.8623 15.5583 68.3918 16.162 68.5983 17.067C68.7674 16.3331 69.1444 15.7889 69.8532 15.4696ZM66.6524 17.4706C66.2826 17.3044 66.061 17.0027 65.9219 16.5534C65.7665 17.1041 65.4481 17.4088 64.9412 17.5674C65.4533 17.7089 65.754 18.029 65.9311 18.562C66.0898 18.0158 66.4187 17.7282 66.8788 17.5564C66.7974 17.5235 66.7445 17.5021 66.6524 17.4706ZM70.2152 18.2142C70.3256 17.8957 70.5461 17.687 70.8731 17.558C70.5257 17.439 70.3169 17.2106 70.1891 16.8671C70.0737 17.2268 69.8547 17.4391 69.5141 17.5596C69.8505 17.6907 70.0825 17.9021 70.2152 18.2142Z" fill="#019DE0"/>
<path d="M36.8487 37.2656C37.6105 37.9685 38.0215 38.8361 38.1662 39.846C38.1687 39.8636 38.183 39.8794 38.2035 39.9183C38.5983 39.9183 39.0052 39.9214 39.412 39.9178C41.4965 39.8994 43.5809 39.8722 45.6655 39.8612C49.2934 39.842 52.9213 39.8279 56.5492 39.8213C57.7767 39.8191 59.0042 39.847 60.2317 39.8594C60.9839 39.867 61.7362 39.867 62.4883 39.8787C63.1823 39.8896 63.8761 39.9119 64.57 39.9282C64.6071 39.9291 64.6443 39.9221 64.6966 39.9174C64.8961 38.5238 65.5435 37.4267 66.7571 36.7296C67.6267 36.2301 68.5643 36.0751 69.5383 36.3C71.5028 36.7536 72.6751 38.4622 72.6036 40.18C72.5106 39.8423 72.4369 39.4161 72.278 39.0265C71.7683 37.7767 70.8565 37.0059 69.5515 36.7441C68.1958 36.4722 66.5946 37.104 65.8231 38.5776C65.5645 39.0715 65.4069 39.6021 65.414 40.1724C65.4159 40.3272 65.4143 40.4819 65.4143 40.6318C65.3691 40.6532 65.3447 40.6744 65.3195 40.6754C64.8449 40.6935 64.3703 40.7192 63.8956 40.7234C62.6766 40.7341 61.4574 40.7316 60.2384 40.7408C58.7921 40.7517 57.3458 40.7772 55.8994 40.7823C52.9848 40.7927 50.0702 40.7957 47.1556 40.7975C45.8318 40.7983 44.5079 40.7942 43.1841 40.7825C41.6713 40.7691 40.1585 40.7482 38.6458 40.7229C38.2594 40.7164 37.8736 40.6808 37.465 40.6573C37.537 39.4735 37.1899 38.4469 36.3468 37.6436C35.6754 37.0038 34.8553 36.6746 33.9309 36.6845C32.2144 36.7029 30.536 37.9494 30.282 40.2492C30.2408 39.246 30.5457 38.3606 31.1843 37.6042C31.783 36.895 32.5413 36.45 33.4441 36.2809C34.7258 36.0408 35.8484 36.3978 36.8487 37.2656Z" fill="#9A9A9A"/>
<path d="M56.5133 48.1083C56.9139 48.6034 57.3013 49.0827 57.7128 49.5918C57.7872 49.352 57.7429 49.142 57.7509 48.9373C57.7594 48.7228 57.7528 48.5076 57.7528 48.2927C57.7528 48.0681 57.7528 47.8434 57.7528 47.6188C57.7528 47.4039 57.7528 47.189 57.7528 46.9741C57.7528 46.7621 57.7528 46.55 57.7528 46.3227C58.3339 46.3227 58.8816 46.3227 59.4489 46.3227C59.4489 48.4183 59.4489 50.5034 59.4489 52.6108C59.3785 52.6191 59.3065 52.6345 59.2344 52.6351C58.901 52.6377 58.5672 52.6281 58.2341 52.6397C58.0647 52.6456 57.9515 52.5857 57.8455 52.4523C57.347 51.8253 56.8396 51.2058 56.3366 50.5825C56.0458 50.2222 55.7579 49.8593 55.467 49.499C55.4332 49.4572 55.3884 49.4249 55.3066 49.3493C55.3066 50.469 55.3066 51.5358 55.3066 52.6192C54.7293 52.6192 54.1814 52.6192 53.6133 52.6192C53.6133 50.5263 53.6133 48.441 53.6133 46.3362C53.6712 46.3268 53.7335 46.3083 53.7961 46.3078C54.1486 46.3049 54.5013 46.3131 54.8536 46.3032C55.0025 46.299 55.1039 46.3528 55.1952 46.4675C55.6277 47.0112 56.0646 47.5512 56.5133 48.1083Z" fill="#999999"/>
<path d="M74.8463 50.9932C74.8463 49.4243 74.8463 47.8848 74.8463 46.3261C74.954 46.3184 75.0366 46.3074 75.1192 46.3073C76.0615 46.3061 77.0039 46.2954 77.946 46.3103C78.6194 46.321 79.2463 46.5101 79.7562 46.9836C80.1599 47.3585 80.3885 47.8364 80.4014 48.4002C80.4078 48.6805 80.3942 48.966 80.3477 49.2418C80.2592 49.7664 79.9752 50.1699 79.5411 50.462C79.4469 50.5255 79.3536 50.5905 79.2449 50.6651C79.6806 51.3186 80.1069 51.9581 80.5585 52.6356C79.921 52.6356 79.3334 52.6347 78.7457 52.6362C78.6168 52.6366 78.5718 52.5366 78.5133 52.4487C78.2294 52.0219 77.9398 51.599 77.6635 51.167C77.5747 51.0281 77.4748 50.9684 77.3129 50.9777C77.0963 50.9902 76.8785 50.9808 76.6265 50.9808C76.6265 51.5361 76.6265 52.067 76.6265 52.6167C76.0255 52.6167 75.4594 52.6167 74.8739 52.6167C74.8168 52.3525 74.8547 52.0811 74.8478 51.8128C74.8409 51.5495 74.8463 51.2859 74.8463 50.9932ZM76.6186 48.3865C76.6186 48.7723 76.6186 49.158 76.6186 49.5738C76.959 49.5738 77.2609 49.579 77.5625 49.5713C77.6939 49.568 77.8266 49.5471 77.9555 49.5186C78.3384 49.4338 78.6011 49.1321 78.6303 48.7551C78.675 48.1783 78.3331 47.7793 77.7642 47.7597C77.4417 47.7486 77.1185 47.7562 76.7956 47.7591C76.7426 47.7596 76.6898 47.7793 76.6186 47.7939C76.6186 47.9806 76.6186 48.1546 76.6186 48.3865Z" fill="#999999"/>
<path d="M101.38 52.6364C100.059 52.6364 98.7665 52.6364 97.458 52.6364C97.458 50.5187 97.458 48.4343 97.458 46.3281C99.0589 46.3281 100.653 46.3281 102.267 46.3281C102.267 46.7741 102.267 47.2181 102.267 47.7062C101.935 47.7217 101.596 47.7111 101.258 47.7131C100.925 47.715 100.592 47.7135 100.258 47.7135C99.9178 47.7135 99.5772 47.7135 99.219 47.7135C99.219 48.0587 99.219 48.3742 99.219 48.7279C100.124 48.7279 101.014 48.7279 101.924 48.7279C101.924 49.1981 101.924 49.6305 101.924 50.0949C101.025 50.0949 100.135 50.0949 99.2226 50.0949C99.2226 50.4807 99.2226 50.8354 99.2226 51.2194C100.27 51.2194 101.313 51.2194 102.397 51.2194C102.406 51.6991 102.403 52.1503 102.399 52.6364C102.05 52.6364 101.729 52.6364 101.38 52.6364Z" fill="#999999"/>
<path d="M72.1091 50.1014C71.6252 50.1014 71.1699 50.1014 70.6942 50.1014C70.6942 50.4827 70.6942 50.8373 70.6942 51.2268C71.7527 51.2268 72.8039 51.2268 73.8715 51.2268C73.8715 51.7053 73.8715 52.1494 73.8715 52.615C72.2253 52.615 70.5853 52.615 68.9297 52.615C68.9297 50.5162 68.9297 48.4319 68.9297 46.3269C70.5346 46.3269 72.1294 46.3269 73.7652 46.3269C73.783 46.7737 73.7719 47.2247 73.7722 47.7105C72.7333 47.7105 71.7201 47.7105 70.6917 47.7105C70.6917 48.0608 70.6917 48.3765 70.6917 48.7299C71.5991 48.7299 72.4889 48.7299 73.3976 48.7299C73.3976 49.1999 73.3976 49.6323 73.3976 50.1014C72.97 50.1014 72.5538 50.1014 72.1091 50.1014Z" fill="#999999"/>
<path d="M42.9566 51.229C43.8888 51.229 44.793 51.229 45.6921 51.229C45.7595 51.4453 45.7722 52.245 45.7157 52.6167C44.0857 52.6167 42.4527 52.6167 40.8198 52.6167C40.7624 52.4106 40.7471 46.6881 40.8057 46.3242C42.3981 46.3242 43.9935 46.3242 45.6108 46.3242C45.6108 46.7707 45.6108 47.2148 45.6108 47.695C45.3704 47.7325 45.1162 47.708 44.8643 47.7121C44.6072 47.7163 44.35 47.713 44.0929 47.713C43.8358 47.713 43.5787 47.713 43.3215 47.713C43.0649 47.713 42.8083 47.713 42.5197 47.713C42.4848 48.052 42.5085 48.3771 42.5045 48.745C42.9734 48.7596 43.4176 48.7505 43.8614 48.7521C44.3077 48.7538 44.7541 48.7525 45.2363 48.7525C45.2544 49.2057 45.2457 49.6368 45.2429 50.1009C44.3196 50.1009 43.4291 50.1009 42.5208 50.1009C42.5208 50.4804 42.5208 50.828 42.5208 51.2147C42.6532 51.2193 42.791 51.2242 42.9566 51.229Z" fill="#999999"/>
<path d="M8.92976 52.6365C8.44631 52.6365 7.99034 52.6365 7.51465 52.6365C7.53159 52.5571 7.53456 52.499 7.55597 52.4493C8.23869 50.8628 8.92362 49.2773 9.60711 47.6911C9.77605 47.299 9.94072 46.9051 10.1083 46.5124C10.1543 46.4048 10.1946 46.3026 10.3459 46.3045C10.8782 46.3112 11.4107 46.3071 11.9594 46.3071C12.8659 48.4062 13.7681 50.4953 14.6847 52.6179C14.0431 52.6179 13.4488 52.6179 12.8386 52.6179C12.6789 52.2268 12.5177 51.8324 12.3506 51.4233C11.5064 51.4233 10.6625 51.4233 9.78223 51.4233C9.62823 51.8087 9.4674 52.2112 9.29747 52.6365C9.18209 52.6365 9.06966 52.6365 8.92976 52.6365ZM10.7734 48.8568C10.6297 49.249 10.4525 49.6291 10.3265 50.0443C10.8335 50.0443 11.3046 50.0443 11.8136 50.0443C11.5767 49.4055 11.3474 48.7929 11.0612 48.1352C10.9519 48.4057 10.8695 48.6098 10.7734 48.8568Z" fill="#999999"/>
<path d="M51.8731 52.6365C51.6648 52.6365 51.4848 52.6365 51.283 52.6365C51.153 52.308 51.0244 51.9857 50.8979 51.6625C50.7984 51.408 50.7996 51.4063 50.5284 51.4061C49.8432 51.4053 49.1579 51.4058 48.4727 51.4058C48.3974 51.4058 48.3221 51.4058 48.2292 51.4058C48.0634 51.8183 47.9015 52.221 47.7385 52.6264C47.144 52.6264 46.5651 52.6264 45.9502 52.6264C45.9866 52.5167 46.0115 52.4183 46.051 52.3265C46.8867 50.3841 47.7244 48.4425 48.5602 46.5001C48.6087 46.3872 48.6562 46.3015 48.8037 46.3038C49.3265 46.3118 49.8496 46.3069 50.4006 46.3069C51.3063 48.4032 52.212 50.4995 53.1353 52.6365C52.6955 52.6365 52.2984 52.6365 51.8731 52.6365ZM49.4553 48.2731C49.2242 48.8573 48.9932 49.4416 48.7599 50.0315C49.1618 50.0832 50.0425 50.0681 50.2565 50.0043C50.0277 49.4268 49.8005 48.8505 49.5685 48.2763C49.559 48.253 49.5047 48.2487 49.4553 48.2731Z" fill="#999999"/>
<path d="M63.422 50.7621C63.9556 51.0518 64.4928 51.2606 65.08 51.3267C65.3861 51.3612 65.6873 51.3559 65.9856 51.2821C66.0672 51.2619 66.1477 51.2224 66.2189 51.176C66.4462 51.0278 66.4691 50.7237 66.2481 50.5686C66.1028 50.4666 65.9295 50.3936 65.7586 50.3453C65.3012 50.2162 64.8348 50.12 64.3786 49.9871C63.915 49.852 63.4901 49.6378 63.1919 49.2255C62.7515 48.6167 62.8105 47.4853 63.4729 46.8751C63.9225 46.461 64.4655 46.2696 65.0515 46.1972C65.7277 46.1137 66.3953 46.1763 67.0526 46.3625C67.3905 46.4583 67.6786 46.5908 67.8873 46.7707C67.7178 47.1917 67.5452 47.6204 67.3644 48.0697C67.1456 47.9756 66.9507 47.8804 66.7483 47.8069C66.2408 47.6226 65.7216 47.5173 65.1851 47.6514C65.0593 47.6828 64.9308 47.7415 64.8273 47.8205C64.5955 47.9972 64.604 48.3161 64.8605 48.4478C65.0949 48.5681 65.3568 48.6357 65.6109 48.7112C66.0938 48.8549 66.5907 48.9577 67.0605 49.1365C67.3274 49.238 67.5973 49.4146 67.7871 49.6302C68.2646 50.1728 68.2693 50.8193 68.0068 51.462C67.7444 52.1044 67.2168 52.4542 66.5848 52.6214C65.7123 52.8523 64.8319 52.8165 63.9643 52.5801C63.6544 52.4956 63.3577 52.3588 63.0578 52.2385C62.9716 52.204 62.8953 52.1437 62.792 52.0818C62.9042 51.8198 63.0053 51.5705 63.1172 51.3264C63.2048 51.1351 63.3056 50.9502 63.422 50.7621Z" fill="#999999"/>
<path d="M15.056 51.228C15.1327 51.0593 15.2011 50.9113 15.2787 50.7436C15.3605 50.7816 15.4278 50.8093 15.492 50.8435C16.1098 51.1723 16.7608 51.368 17.4625 51.3434C17.6225 51.3378 17.7829 51.303 17.9398 51.2665C18.0109 51.25 18.081 51.2058 18.1391 51.1582C18.3906 50.9519 18.3765 50.6755 18.0903 50.5231C17.8984 50.421 17.6872 50.3502 17.4778 50.2905C17.0299 50.1629 16.5704 50.0739 16.1297 49.9252C15.8635 49.8353 15.5981 49.697 15.3773 49.5211C14.8151 49.0733 14.6562 48.2082 14.9573 47.4965C15.1799 46.9703 15.5796 46.6456 16.0762 46.4278C16.4382 46.2689 16.8198 46.2125 17.213 46.1824C17.9266 46.1278 18.6134 46.2282 19.2814 46.4775C19.4568 46.543 19.6219 46.6376 19.8078 46.7265C19.6212 47.1887 19.4478 47.6183 19.2607 48.0819C19.1517 48.0318 19.0595 47.9921 18.9696 47.9477C18.4819 47.7065 17.9683 47.5777 17.4265 47.6004C17.2588 47.6074 17.0893 47.652 16.9273 47.702C16.7322 47.7623 16.5803 47.9077 16.5661 48.113C16.5511 48.3303 16.7095 48.4723 16.9047 48.5304C17.2689 48.6389 17.6375 48.7321 18.0059 48.8253C18.4033 48.9258 18.7909 49.0468 19.1649 49.2251C20.0346 49.6397 20.2685 50.6217 19.9168 51.4573C19.678 52.0247 19.237 52.3931 18.685 52.5554C17.3537 52.9469 16.054 52.8238 14.8169 52.1579C14.7843 52.1403 14.757 52.1127 14.7012 52.0699C14.8165 51.7965 14.9321 51.5225 15.056 51.228Z" fill="#999999"/>
<path d="M91.0456 47.785C91.4409 47.085 92.0169 46.6344 92.7309 46.3868C93.7638 46.0287 94.7876 46.072 95.7733 46.5777C96.1337 46.7625 96.442 47.0188 96.6982 47.3851C96.3223 47.7343 95.9531 48.0773 95.5649 48.4379C95.4534 48.326 95.3606 48.231 95.2658 48.1381C94.59 47.4769 93.2159 47.5147 92.6748 48.4645C92.2665 49.1814 92.3314 50.0958 92.859 50.7275C93.3729 51.3428 94.5704 51.4881 95.282 50.7868C95.3705 50.6995 95.4445 50.5967 95.5461 50.4766C95.9494 50.8512 96.3186 51.1942 96.6974 51.5461C96.3648 52.0094 95.9527 52.3374 95.4506 52.511C94.2596 52.923 93.0894 52.8973 92.002 52.1834C91.2802 51.7096 90.8425 51.0173 90.6862 50.1497C90.5382 49.328 90.6307 48.5403 91.0456 47.785Z" fill="#999999"/>
<path d="M83.541 48.8231C83.7483 49.3245 83.9469 49.8055 84.1455 50.2864C84.1667 50.288 84.188 50.2896 84.2092 50.2912C84.7591 48.971 85.3089 47.6508 85.8625 46.3214C86.4402 46.3214 87.0085 46.3214 87.6257 46.3214C86.7505 48.4382 85.8711 50.5253 84.9944 52.6227C84.406 52.6227 83.8282 52.6227 83.2311 52.6227C82.3591 50.5289 81.4876 48.4366 80.6006 46.307C81.2347 46.307 81.8146 46.3088 82.3944 46.3057C82.5338 46.3049 82.5627 46.4086 82.6028 46.5075C82.9126 47.2725 83.2225 48.0375 83.541 48.8231Z" fill="#999999"/>
<path d="M34.3386 47.6669C34.0584 47.9287 33.7928 48.1758 33.5161 48.4332C33.0773 47.9345 32.5738 47.6475 31.9214 47.6967C31.5175 47.7272 31.1688 47.8609 30.8702 48.151C30.2605 48.7434 30.1636 49.9487 30.7782 50.6914C31.1462 51.1361 31.6379 51.2739 32.1892 51.2469C32.74 51.22 33.1475 50.9167 33.515 50.501C33.9001 50.8555 34.2659 51.1922 34.6453 51.5415C34.3403 51.9936 33.9325 52.3069 33.4479 52.4865C32.1978 52.9499 30.9781 52.9047 29.8549 52.113C29.0813 51.5678 28.6863 50.7825 28.5934 49.8259C28.5338 49.2123 28.6108 48.6285 28.8583 48.0659C29.2142 47.2568 29.8155 46.727 30.6144 46.4111C31.0371 46.2439 31.4795 46.1556 31.9238 46.1578C32.8831 46.1623 33.7667 46.4138 34.4619 47.1482C34.5254 47.2153 34.5757 47.2954 34.6431 47.3839C34.5335 47.4854 34.4433 47.5688 34.3386 47.6669Z" fill="#999999"/>
<path d="M2.81345 51.1107C2.81344 49.5023 2.81344 47.9233 2.81344 46.3257C4.43667 46.3257 6.03196 46.3257 7.66743 46.3257C7.67829 46.777 7.67243 47.2282 7.67099 47.7093C6.63667 47.7093 5.63193 47.7093 4.6068 47.7093C4.6068 48.1627 4.6068 48.5873 4.6068 49.0557C5.4801 49.0704 6.36039 49.0538 7.23481 49.0648C7.29836 49.2898 7.30815 50.1199 7.2497 50.4681C6.37641 50.4681 5.49645 50.4681 4.58836 50.4681C4.58836 51.2002 4.58836 51.8984 4.58836 52.6163C3.99359 52.6163 3.4273 52.6163 2.84399 52.6163C2.77805 52.3736 2.82361 52.1208 2.81524 51.872C2.80704 51.6283 2.81345 51.384 2.81345 51.1107Z" fill="#999898"/>
<path d="M25.2827 46.3064C25.4235 46.3064 25.5363 46.3064 25.6719 46.3064C25.6719 46.7894 25.6719 47.2515 25.6719 47.7463C25.0669 47.7463 24.4617 47.7463 23.8237 47.7463C23.7947 48.093 23.8119 48.4118 23.8088 48.7293C23.8057 49.0514 23.8082 49.3735 23.8082 49.6955C23.8082 50.0176 23.8082 50.3397 23.8082 50.6618C23.8082 50.9839 23.8082 51.306 23.8082 51.6281C23.8082 51.9491 23.8082 52.2701 23.8082 52.5853C23.582 52.6486 22.3583 52.6575 22.0339 52.5969C22.0339 50.9994 22.0339 49.395 22.0339 47.759C21.3956 47.759 20.791 47.759 20.168 47.759C20.168 47.2653 20.168 46.8035 20.168 46.3064C21.8716 46.3064 23.5632 46.3064 25.2827 46.3064Z" fill="#999999"/>
<path d="M35.4826 46.3136C36.0505 46.3088 36.5917 46.3088 37.1678 46.3088C37.1678 47.9473 37.1678 49.5624 37.1678 51.2096C38.1508 51.2096 39.099 51.2096 40.0672 51.2096C40.0672 51.6945 40.0672 52.1472 40.0672 52.6182C38.519 52.6182 36.9806 52.6182 35.4192 52.6182C35.4125 52.5311 35.4003 52.4471 35.4002 52.3631C35.3992 50.439 35.3986 48.515 35.4018 46.591C35.402 46.5001 35.4371 46.4093 35.4826 46.3136Z" fill="#999999"/>
<path d="M55.7214 9.27229C55.4566 9.94782 55.0044 10.3994 54.35 10.6093C52.9471 11.0591 51.5701 9.96696 51.5703 8.51831C51.5704 7.43151 52.374 6.45729 53.4655 6.33049C54.7059 6.18637 55.7222 7.15202 55.8311 8.21959C55.8679 8.57985 55.815 8.91254 55.7214 9.27229Z" fill="#999999"/>
<path d="M88.24 52.6362C88.138 52.6315 88.0636 52.6268 87.9707 52.621C87.9707 50.5258 87.9707 48.442 87.9707 46.3571C88.1608 46.2941 89.3211 46.2783 89.7049 46.3376C89.7049 48.4184 89.7049 50.5024 89.7049 52.6231C89.4694 52.6514 89.2244 52.6319 88.9813 52.6354C88.7434 52.6389 88.5054 52.6362 88.24 52.6362Z" fill="#999999"/>
<path d="M78.575 8.08956C79.1159 7.85548 79.6207 7.9046 80.0897 8.21181C80.6766 8.59627 80.9165 9.19639 80.8302 9.8058C80.7063 10.6803 80.184 11.1096 79.5862 11.23C78.8522 11.3778 78.2234 11.1572 77.7952 10.4098C77.4441 9.79708 77.5738 8.91508 78.0825 8.41828C78.217 8.28689 78.3961 8.20347 78.575 8.08956Z" fill="#999999"/>
<path d="M85.7645 24.3841C86.1333 23.9148 86.5849 23.6592 87.1623 23.686C88.042 23.7269 88.6788 24.4599 88.7055 25.2908C88.7329 26.1441 88.1108 26.857 87.3838 26.988C86.5298 27.1419 85.5865 26.5738 85.4837 25.5149C85.445 25.1154 85.5282 24.7385 85.7645 24.3841Z" fill="#999999"/>
<path d="M31.3329 17.608C31.666 18.0515 31.715 18.5414 31.5978 19.039C31.4384 19.7157 30.7711 20.1874 30.075 20.1611C29.3691 20.1344 28.7894 19.6565 28.6395 18.9289C28.4974 18.2391 28.7444 17.5917 29.385 17.2172C29.9731 16.8734 30.7123 16.9792 31.1987 17.4677C31.2394 17.5086 31.2792 17.5505 31.3329 17.608Z" fill="#999999"/>
<path d="M16.541 28.4042C16.7178 27.6561 17.5563 27.3115 18.1801 27.7195C18.6421 28.0217 18.7397 28.4697 18.6323 28.9678C18.5336 29.426 18.11 29.7509 17.6584 29.7655C17.1437 29.7822 16.7129 29.5041 16.5841 29.0338C16.5318 28.8429 16.5513 28.6313 16.541 28.4042Z" fill="#999999"/>
<path d="M69.8321 15.4768C69.144 15.7895 68.767 16.3337 68.5979 17.0676C68.3914 16.1625 67.8619 15.5589 66.8994 15.327C67.8054 15.0994 68.3785 14.5457 68.5961 13.5815C68.8231 14.5276 69.378 15.095 70.2784 15.3215C70.1242 15.3754 69.9885 15.4228 69.8321 15.4768Z" fill="#F9FDFE"/>
<path d="M66.6722 17.4762C66.7447 17.5027 66.7976 17.5241 66.879 17.557C66.419 17.7288 66.09 18.0164 65.9313 18.5626C65.7542 18.0296 65.4536 17.7095 64.9414 17.568C65.4483 17.4094 65.7667 17.1047 65.9221 16.554C66.0613 17.0033 66.2828 17.305 66.6722 17.4762Z" fill="#F4FBFE"/>
<path d="M70.2032 18.2263C70.0831 17.9025 69.851 17.6911 69.5146 17.5599C69.8553 17.4395 70.0743 17.2272 70.1897 16.8674C70.3175 17.211 70.5263 17.4393 70.8737 17.5583C70.5467 17.6873 70.3261 17.8961 70.2032 18.2263Z" fill="#F4FBFE"/>
</g>
<defs>
<clipPath id="clip0_4695_807">
<rect width="105" height="58" fill="white"/>
</clipPath>
</defs>
</svg>
