<?xml version="1.0" encoding="UTF-8"?>
<svg id="Layer_1" data-name="Layer 1" xmlns="http://www.w3.org/2000/svg" xmlns:xlink="http://www.w3.org/1999/xlink" viewBox="0 0 576 576">
  <defs>
    <style>
      .cls-1 {
        fill: #fff;
      }

      .cls-2 {
        fill: url(#linear-gradient);
      }
    </style>
    <linearGradient id="linear-gradient" x1="524.41" y1="325.78" x2="547.46" y2="325.78" gradientUnits="userSpaceOnUse">
      <stop offset=".4" stop-color="#057c5b"/>
      <stop offset="1" stop-color="#0d544a"/>
    </linearGradient>
  </defs>
  <circle class="cls-2" cx="535.93" cy="325.78" r="11.52"/>
  <path class="cls-1" d="M57.18,326.38h0c-11.39,0-20.66-9.27-20.66-20.66v-63.04c0-2.2-1.79-3.99-3.99-3.99s-3.99,1.79-3.99,3.99v63.04c0,15.81,12.83,28.63,28.63,28.64,2.2,0,3.99-1.79,3.99-3.99s-1.79-3.99-3.99-3.99Z"/>
  <path class="cls-1" d="M123.87,278.51c-2.18,0-3.95,1.77-3.95,3.95v22.98c0,11.98-9.74,21.72-21.72,21.72s-21.72-9.74-21.72-21.72v-22.98c0-2.18-1.77-3.95-3.95-3.95s-3.95,1.77-3.95,3.95v22.98c0,16.35,13.27,29.61,29.62,29.61,6.77,0,16.15-3.89,20.94-8.67,4.79-4.76,8.67-14.11,8.67-20.86v-23.06c0-2.18-1.77-3.95-3.95-3.95Z"/>
  <path class="cls-1" d="M203.4,278.56h-.02c-4.01,0-10.02,1.75-13.4,3.91-2.6,1.65-6.05,5.1-7.7,7.69-1.66-2.59-5.11-6.04-7.7-7.69-3.39-2.16-9.39-3.91-13.4-3.91h-.02c-13.82,0-25.06,11.24-25.06,25.06v27.29c0,2.17,1.76,3.93,3.93,3.93s3.93-1.76,3.93-3.93v-27.29c0-9.48,7.71-17.2,17.2-17.2s17.2,7.72,17.2,17.2v27.29c.04,2.13,1.8,3.86,3.93,3.86s3.89-1.73,3.93-3.86v-27.29c0-9.48,7.71-17.2,17.2-17.2s17.19,7.72,17.19,17.2v27.29c.04,2.13,1.8,3.86,3.93,3.86s3.89-1.73,3.93-3.86v-27.29c0-13.82-11.24-25.06-25.06-25.06Z"/>
  <path class="cls-1" d="M292.47,278.51c-2.18,0-3.95,1.77-3.95,3.95v22.98c0,11.98-9.74,21.72-21.72,21.72s-21.72-9.74-21.72-21.72v-22.98c0-2.18-1.77-3.95-3.95-3.95s-3.95,1.77-3.95,3.95v22.98c0,16.35,13.27,29.61,29.62,29.61,6.77,0,16.15-3.89,20.94-8.67,4.79-4.76,8.67-14.11,8.67-20.86v-23.06c0-2.18-1.77-3.95-3.95-3.95Z"/>
  <path class="cls-1" d="M330.47,278.55c-13.82,0-25.06,11.24-25.06,25.06v27.3s0,.05,0,.07c0,2.17,1.76,3.93,3.93,3.93s3.93-1.76,3.93-3.93c0-.02,0-.05,0-.07v-27.3c0-9.48,7.72-17.2,17.2-17.2s17.2,7.72,17.2,17.2v27.3c0,2.17,1.76,3.93,3.93,3.93s3.93-1.76,3.93-3.93v-27.3c0-13.82-11.24-25.06-25.06-25.06Z"/>
  <path class="cls-1" d="M456.85,282.48c2.2,0,3.99-1.79,3.99-3.99s-1.79-3.99-3.99-3.99h-20.67v-31.82c0-2.2-1.79-3.99-3.99-3.99s-3.99,1.79-3.99,3.99v63.04c0,15.81,12.83,28.64,28.64,28.64h0c2.2,0,3.99-1.79,3.99-3.99s-1.79-3.99-3.99-3.99c-11.39,0-20.66-9.27-20.66-20.66v-23.24h20.66Z"/>
  <path class="cls-1" d="M363.7,306.7c0-7.72,2.77-14.33,8.26-19.81,5.49-5.49,12.09-8.26,19.81-8.26s14.33,2.77,19.81,8.26c5.49,5.49,8.26,12.09,8.26,19.81v24.34c0,2.06-1.67,3.73-3.73,3.73h0c-2.06,0-3.73-1.67-3.73-3.73v-24.34c0-5.7-2.02-10.55-6.02-14.59-4.05-3.99-8.89-6.02-14.59-6.02s-10.55,2.02-14.59,6.02c-3.99,4.05-6.02,8.89-6.02,14.59s2.02,10.55,6.02,14.59c4.05,3.99,8.89,6.02,14.59,6.02,1.2,0,2.39-.1,3.56-.31,1.84-.32,3.66,.65,4.28,2.41h0c.76,2.18-.62,4.5-2.89,4.91-1.62,.29-3.28,.44-4.94,.44-7.72,0-14.33-2.77-19.81-8.26-5.49-5.49-8.26-12.09-8.26-19.81Z"/>
  <path class="cls-1" d="M506.14,331.26c-.03,1.62-1.21,2.99-2.81,3.25-3.28,.53-9.46,.75-14.89-1.09-1.4-.47-6.11-2.19-10.61-6.51-5.15-4.95-6.97-10.34-7.33-11.41-.85-2.59-1.29-5.35-1.29-8.33,0-7.83,2.77-14.54,8.36-20.13,5.59-5.59,12.3-8.36,20.13-8.36s13.27,2.77,18.86,8.36c5.59,5.59,8.36,12.3,8.36,20.13,0,2.09-1.69,3.79-3.78,3.79h-27.73c-1.86,0-3.57-1.25-3.9-3.08-.43-2.4,1.4-4.49,3.72-4.49h22.22c.84,0,1.45-.8,1.24-1.61-.97-3.74-2.85-6.97-5.7-9.68-4.55-4.32-9.6-6.41-15.84-5.73-4.22,.46-7.92,2.11-11.15,4.95-5,4.4-7.67,11.01-7.16,17.65,.17,2.23,.66,4.33,1.48,6.29,1.51,3.63,3.91,5.72,5.13,6.79,3.55,3.14,7.23,4.3,8.81,4.72,2.85,.75,7.79,1.05,10.54,1.07,1.87,0,3.36,1.55,3.33,3.41h0Z"/>
</svg>