<svg width="38" height="37" viewBox="0 0 38 37" fill="none" xmlns="http://www.w3.org/2000/svg">
  <path d="M10.7926 18.13C10.1796 18.13 9.68262 18.627 9.68262 19.24C9.68262 19.853 10.1796 20.35 10.7926 20.35V18.13ZM28.5526 20.35C29.1656 20.35 29.6626 19.853 29.6626 19.24C29.6626 18.627 29.1656 18.13 28.5526 18.13V20.35ZM10.7926 24.05C10.1796 24.05 9.68262 24.547 9.68262 25.16C9.68262 25.773 10.1796 26.27 10.7926 26.27V24.05ZM28.5526 26.27C29.1656 26.27 29.6626 25.773 29.6626 25.16C29.6626 24.547 29.1656 24.05 28.5526 24.05V26.27ZM10.7926 12.21C10.1796 12.21 9.68262 12.707 9.68262 13.32C9.68262 13.933 10.1796 14.43 10.7926 14.43V12.21ZM28.5526 14.43C29.1656 14.43 29.6626 13.933 29.6626 13.32C29.6626 12.707 29.1656 12.21 28.5526 12.21V14.43ZM10.7926 20.35H28.5526V18.13H10.7926V20.35ZM10.7926 26.27H28.5526V24.05H10.7926V26.27ZM10.7926 14.43H28.5526V12.21H10.7926V14.43Z" fill="white"/>
</svg>
