<svg width="40" height="54" viewBox="0 0 40 54" fill="none" xmlns="http://www.w3.org/2000/svg">
<path d="M10.2298 44.621L2.96021 51.3853H10.2298V53.0198H0V51.8792L6.98104 45.1524H0V43.5178H10.2298V44.6195V44.621Z" fill="#B2EE46"/>
<path d="M11.0093 48.7163V48.0278C11.0093 45.534 12.4522 43.5432 17.3894 43.5432C20.9029 43.5432 23.048 44.4743 23.048 46.3348V46.5773C23.048 48.9962 19.2934 49.3929 17.37 49.3929C16.3526 49.3929 14.2402 49.2582 12.891 49.0726C13.0383 50.6547 14.4054 51.5424 17.1975 51.5424C20.1562 51.5424 21.1097 50.8224 21.3314 49.6863H23.2131C23.1581 51.6023 21.2719 53.2039 17.1841 53.2039C12.543 53.2039 11.0078 51.1562 11.0078 48.7193L11.0093 48.7163ZM21.1618 46.3902V46.3723C21.1618 45.7211 20.6441 45.2002 17.3894 45.2002C13.8936 45.2002 12.8925 46.2046 12.8925 47.4141C14.3354 47.6191 16.4835 47.7314 17.3894 47.7314C20.9029 47.7314 21.1618 47.1357 21.1618 46.3917V46.3902Z" fill="#B2EE46"/>
<path d="M36.4687 46.6447V51.0155C36.4687 51.8193 36.5237 52.3791 36.6903 53.2009H34.8086C34.7342 52.8836 34.6315 52.3043 34.6315 51.7624C33.9443 52.4914 32.4225 53.2009 29.2288 53.2009C25.2556 53.2009 24.6992 51.6127 24.6992 50.6607V50.3808C24.6992 48.158 26.3891 47.6715 29.7494 47.4111C33.388 47.1312 34.5944 46.9231 34.5944 46.6986C34.5944 46.3438 34.4084 45.2047 30.6955 45.2047C27.6133 45.2047 26.9157 45.8409 26.9157 46.9051H25.0324C25.0324 45.6717 25.7941 43.5432 30.694 43.5432C36.2262 43.5432 36.4672 46.1028 36.4672 46.6447H36.4687ZM34.5944 48.8301V48.5307C33.6111 48.7178 32.2366 48.8855 31.2533 48.9423C30.6033 48.9798 30.0469 49.0352 29.379 49.092C26.8175 49.2971 26.5824 49.7641 26.5824 50.3808V50.4736C26.5824 51.0903 26.8919 51.5394 29.2303 51.5394C33.1098 51.5394 34.5944 50.511 34.5944 48.8301Z" fill="#B2EE46"/>
<path d="M38.1172 40.1321H40.0004V53.1128H38.1172V40.1321Z" fill="#B2EE46"/>
<path d="M32.5648 5.45632L32.5529 5.44435C32.3074 5.1839 31.8954 5.17791 31.644 5.43237L20.6213 16.524V11.0276L28.4443 3.15567C28.7433 2.8548 28.6719 2.34737 28.3015 2.1423L28.2866 2.13481C28.0382 1.9971 27.7302 2.04201 27.5309 2.24259L20.2896 9.52925C20.2077 9.61158 19.9787 9.81964 19.9787 9.81964C19.9787 9.81964 19.7496 9.61158 19.6678 9.52925L12.4294 2.24558C12.2271 2.04201 11.9147 1.9971 11.6648 2.13631L11.6499 2.14529C11.2825 2.34886 11.2111 2.85031 11.5071 3.14968L19.3346 11.0261V16.5225L8.31335 5.43387C8.06047 5.17941 7.64693 5.1839 7.40149 5.44585L7.39108 5.45632C7.15456 5.70779 7.15902 6.10296 7.40298 6.34845L19.3346 18.3547V26.779V26.8553V38.8241C19.3346 39.1774 19.6187 39.4633 19.9697 39.4633H19.9876C20.3386 39.4633 20.6228 39.1774 20.6228 38.8241V18.3562L32.5529 6.34994C32.7968 6.10446 32.8013 5.70929 32.5648 5.45782V5.45632Z" fill="#B2EE46"/>
<path d="M4.32709 9.94791C4.32263 9.95839 4.31668 9.96887 4.31222 9.97934C4.19916 10.2203 4.25271 10.5092 4.44014 10.6978L13.6346 19.9499L3.52084 19.3466C3.11921 19.3227 2.79641 19.6759 2.85442 20.0771L2.8574 20.0951C2.90054 20.3959 3.14747 20.6234 3.44795 20.6414L14.1835 21.2821V24.8565L4.83583 24.3027C4.34345 24.2728 4.01024 24.7967 4.24081 25.2352L4.25271 25.2592C4.35684 25.4568 4.55469 25.584 4.77633 25.5975L14.1835 26.1543V34.9408C14.1835 35.2941 14.4677 35.58 14.8187 35.58H14.8366C15.1876 35.58 15.4718 35.2941 15.4718 34.9408V19.9663L5.34755 9.77727C5.03962 9.46742 4.51452 9.55124 4.32709 9.94791Z" fill="#B2EE46"/>
<path d="M36.4328 19.347L26.322 19.9502L35.5165 10.6982C35.7054 10.5081 35.7559 10.2177 35.6414 9.97368L35.6355 9.96171C35.4465 9.55906 34.9185 9.46775 34.6061 9.78209L24.4863 19.9652V20.5968V34.2751V34.9307C24.4863 35.2884 24.7749 35.5788 25.1304 35.5788C25.486 35.5788 25.7745 35.2884 25.7745 34.9307V26.1516L35.1996 25.5948C35.4242 25.5813 35.625 25.4511 35.7307 25.252C35.9657 24.806 35.625 24.2716 35.1237 24.3015L25.776 24.8539V21.2794L36.5072 20.6402C36.8121 20.6223 37.062 20.3918 37.1081 20.0879C37.1691 19.6823 36.8433 19.3215 36.4358 19.3455L36.4328 19.347Z" fill="#B2EE46"/>
<path d="M6.67079 17.1948C6.74368 17.1499 6.80021 17.087 6.83889 17.0137C6.87756 16.9403 6.89839 16.858 6.89541 16.7727C6.85674 15.5842 6.18734 14.4975 5.14755 13.9361C4.10776 13.3748 2.8374 13.4152 1.83331 14.0409C1.68901 14.1307 1.60274 14.2924 1.60869 14.463C1.64736 15.6515 2.31676 16.7383 3.35655 17.2981C4.39634 17.8594 5.6667 17.819 6.67079 17.1933V17.1948Z" fill="#B2EE46"/>
<path d="M38.1044 14.0421C37.0988 13.4165 35.8299 13.3761 34.7901 13.9374C33.7503 14.4987 33.0809 15.5854 33.0423 16.7739C33.0393 16.8592 33.0601 16.943 33.0988 17.0149C33.1375 17.0882 33.1955 17.1511 33.2669 17.196C34.2725 17.8217 35.5413 17.8621 36.5811 17.3008C37.6209 16.7395 38.2903 15.6543 38.329 14.4658C38.3349 14.2951 38.2487 14.1335 38.1044 14.0436V14.0421Z" fill="#B2EE46"/>
<path d="M19.7575 5.8469C19.8319 5.88881 19.9137 5.90976 19.9955 5.90976C20.0774 5.90976 20.1592 5.88731 20.2335 5.8439C21.2525 5.24217 21.8832 4.13151 21.8758 2.9445C21.8698 1.7575 21.2287 0.654322 20.2023 0.0630658C20.055 -0.0222547 19.8736 -0.0207578 19.7263 0.0660595C18.7073 0.667793 18.0766 1.77846 18.084 2.96396C18.09 4.15096 18.7311 5.25414 19.7575 5.8454V5.8469Z" fill="#B2EE46"/>
</svg>
