<svg width="18" height="18" viewBox="0 0 18 18" fill="none" xmlns="http://www.w3.org/2000/svg">
<path d="M2.625 8.29167C2.625 5.62037 2.625 4.28473 3.45486 3.45486C4.28473 2.625 5.62037 2.625 8.29167 2.625H9.70833C12.3796 2.625 13.7153 2.625 14.5451 3.45486C15.375 4.28473 15.375 5.62037 15.375 8.29167V9.70833C15.375 12.3796 15.375 13.7153 14.5451 14.5451C13.7153 15.375 12.3796 15.375 9.70833 15.375H8.29167C5.62037 15.375 4.28473 15.375 3.45486 14.5451C2.625 13.7153 2.625 12.3796 2.625 9.70833V8.29167Z" stroke="#00A270"/>
<path d="M12.5303 6.34375C13.1171 6.34375 13.5928 5.86805 13.5928 5.28125C13.5928 4.69445 13.1171 4.21875 12.5303 4.21875C11.9435 4.21875 11.4678 4.69445 11.4678 5.28125C11.4678 5.86805 11.9435 6.34375 12.5303 6.34375Z" fill="#00A270"/>
<path d="M9.00002 12.1875C10.6658 12.1875 12.0161 10.7604 12.0161 9C12.0161 7.23959 10.6658 5.8125 9.00002 5.8125C7.33425 5.8125 5.98389 7.23959 5.98389 9C5.98389 10.7604 7.33425 12.1875 9.00002 12.1875Z" stroke="#00A270"/>
</svg>
