<svg width="19" height="20" viewBox="0 0 19 20" fill="none" xmlns="http://www.w3.org/2000/svg">
<path fill-rule="evenodd" clip-rule="evenodd" d="M4.45459 2.0835C2.79773 2.0835 1.45459 3.50126 1.45459 5.25016V14.7502C1.45459 16.499 2.79773 17.9168 4.45459 17.9168H13.4546C15.1114 17.9168 16.4546 16.499 16.4546 14.7502V5.25016C16.4546 3.50126 15.1114 2.0835 13.4546 2.0835H4.45459ZM2.95459 5.25016C2.95459 4.37571 3.62616 3.66683 4.45459 3.66683H13.4546C14.283 3.66683 14.9546 4.37571 14.9546 5.25016V14.7502C14.9546 15.6246 14.283 16.3335 13.4546 16.3335H4.45459C3.62616 16.3335 2.95459 15.6246 2.95459 14.7502V5.25016ZM6.70459 9.2085C6.70459 8.77126 6.3688 8.41683 5.95459 8.41683C5.54038 8.41683 5.20459 8.77126 5.20459 9.2085V13.9585C5.20459 14.3957 5.54038 14.7502 5.95459 14.7502C6.3688 14.7502 6.70459 14.3957 6.70459 13.9585V9.2085ZM7.07959 6.43766C7.07959 7.0935 6.57591 7.62516 5.95459 7.62516C5.33327 7.62516 4.82959 7.0935 4.82959 6.43766C4.82959 5.78182 5.33327 5.25016 5.95459 5.25016C6.57591 5.25016 7.07959 5.78182 7.07959 6.43766ZM8.95459 8.41683C9.20921 8.41683 9.43422 8.55078 9.56981 8.75558C9.95426 8.53574 10.3823 8.41683 10.8296 8.41683C12.4491 8.41683 13.4546 9.94142 13.4546 11.2442V11.2502V11.2561V11.2622V11.2682V11.2742V11.2803V11.2863V11.2924V11.2985V11.3046V11.3108V11.3169V11.323V11.3292V11.3354V11.3416V11.3477V11.354V11.3602V11.3664V11.3728V11.379V11.3853V11.3916V11.3979V11.4042V11.4105V11.4169V11.4233V11.4297V11.436V11.4424V11.4488V11.4552V11.4617V11.4681V11.4746V11.4811V11.4875V11.494V11.5006V11.5071V11.5136V11.5202V11.5267V11.5332V11.5398V11.5464V11.553V11.5596V11.5662V11.5729V11.5795V11.5861V11.5928V11.5994V11.6061V11.6128V11.6195V11.6262V11.6329V11.6396V11.6464V11.6531V11.6598V11.6665V11.6733V11.6801V11.6869V11.6937V11.7005V11.7072V11.7141V11.7209V11.7277V11.7345V11.7414V11.7482V11.7551V11.7619V11.7688V11.7757V11.7826V11.7895V11.7964V11.8033V11.8102V11.8171V11.8241V11.831V11.8379V11.8448V11.8518V11.8588V11.8657V11.8727V11.8797V11.8866V11.8936V11.9006V11.9075V11.9146V11.9215V11.9286V11.9355V11.9426V11.9496V11.9566V11.9637V11.9707V11.9777V11.9847V11.9918V11.9988V12.0058V12.0129V12.0199V12.027V12.0341V12.0412V12.0482V12.0552V12.0624V12.0694V12.0765V12.0836V12.0906V12.0978V12.1048V12.1119V12.119V12.1261V12.1331V12.1403V12.1473V12.1544V12.1616V12.1686V12.1757V12.1828V12.1899V12.197V12.2041V12.2112V12.2183V12.2254V12.2325V12.2396V12.2468V12.2538V12.2609V12.2681V12.2751V12.2822V12.2893V12.2964V12.3035V12.3106V12.3177V12.3247V12.3319V12.339V12.346V12.3532V12.3602V12.3672V12.3744V12.3814V12.3885V12.3956V12.4026V12.4097V12.4168V12.4238V12.4309V12.4379V12.445V12.452V12.4591V12.4661V12.4732V12.4802V12.4873V12.4942V12.5013V12.5083V12.5153V12.5223V12.5293V12.5363V12.5433V12.5504V12.5573V12.5643V12.5713V12.5782V12.5852V12.5922V12.5991V12.6061V12.6131V12.6199V12.6269V12.6338V12.6408V12.6477V12.6545V12.6614V12.6683V12.6752V12.6821V12.689V12.6959V12.7028V12.7096V12.7164V12.7233V12.7301V12.737V12.7438V12.7506V12.7573V12.7641V12.7709V12.7777V12.7845V12.7912V12.798V12.8047V12.8115V12.8182V12.8249V12.8316V12.8383V12.8449V12.8517V12.8583V12.865V12.8716V12.8783V12.8849V12.8915V12.8981V12.9047V12.9113V12.9178V12.9244V12.931V12.9376V12.9441V12.9506V12.9571V12.9636V12.9701V12.9766V12.9831V12.9895V12.996V13.0024V13.0088V13.0152V13.0216V13.028V13.0344V13.0407V13.047V13.0534V13.0597V13.066V13.0723V13.0786V13.0849V13.0911V13.0973V13.1036V13.1098V13.116V13.1222V13.1284V13.1345V13.1406V13.1468V13.1529V13.159V13.1651V13.1712V13.1772V13.1833V13.1893V13.1953V13.2013V13.2073V13.2132V13.2192V13.2251V13.231V13.237V13.2428V13.2487V13.2545V13.2604V13.2662V13.272V13.2778V13.2836V13.2893V13.2951V13.3008V13.3065V13.3122V13.3179V13.3235V13.3291V13.3347V13.3404V13.3459V13.3514V13.357V13.3625V13.3681V13.3735V13.379V13.3845V13.3899V13.3953V13.4007V13.4061V13.4115V13.4168V13.4221V13.4274V13.4327V13.438V13.4432V13.4484V13.4536V13.4588V13.4639V13.4691V13.4742V13.4793V13.4844V13.4894V13.4944V13.4995V13.5045V13.5095V13.5144V13.5193V13.5242V13.5291V13.534V13.5388V13.5437V13.5484V13.5532V13.558V13.5627V13.5674V13.5721V13.5768V13.5814V13.586V13.5906V13.5952V13.5997V13.6042V13.6087V13.6132V13.6177V13.6221V13.6265V13.6309V13.6353V13.6396V13.6439V13.6482V13.6524V13.6567V13.6609V13.6651V13.6693V13.6734V13.6775V13.6816V13.6857V13.6897V13.6938V13.6977V13.7017V13.7056V13.7095V13.7134V13.7173V13.7211V13.7249V13.7287V13.7324V13.7361V13.7398V13.7435V13.7471V13.7508V13.7543V13.7579V13.7614V13.7649V13.7684V13.7719V13.7753V13.7787V13.782V13.7854V13.7887V13.792V13.7953V13.7984V13.8017V13.8048V13.8079V13.8111V13.8142V13.8172V13.8202V13.8232V13.8261V13.8291V13.832V13.8348V13.8377V13.8405V13.8433V13.8461V13.8488V13.8515V13.8542V13.8568V13.8594V13.8619V13.8644V13.867V13.8694V13.8719V13.8743V13.8766V13.879V13.8813V13.8836V13.8859V13.8881V13.8903V13.8924V13.8945V13.8967V13.8987V13.9007V13.9027V13.9047V13.9066V13.9085V13.9104V13.9122V13.914V13.9157V13.9174V13.9191V13.9208V13.9224V13.924V13.9256V13.9271V13.9286V13.93V13.9314V13.9328V13.9342V13.9355V13.9367V13.938V13.9392V13.9404V13.9415V13.9426V13.9437V13.9447V13.9457V13.9466V13.9476V13.9484V13.9493V13.9501V13.9516V13.953V13.9542V13.9552V13.9562V13.9572V13.9582C13.4546 14.3954 13.1188 14.7502 12.7046 14.7502C12.2904 14.7502 11.9546 14.3957 11.9546 13.9585V13.9575V13.9566V13.9557V13.9548V13.9536V13.9523V13.9509V13.9493V13.9484V13.9476V13.9466V13.9457V13.9447V13.9437V13.9426V13.9415V13.9404V13.9392V13.938V13.9367V13.9355V13.9342V13.9328V13.9314V13.93V13.9286V13.9271V13.9256V13.924V13.9224V13.9208V13.9191V13.9174V13.9157V13.914V13.9122V13.9104V13.9085V13.9066V13.9047V13.9027V13.9007V13.8987V13.8967V13.8945V13.8924V13.8903V13.8881V13.8859V13.8836V13.8813V13.879V13.8766V13.8743V13.8719V13.8694V13.867V13.8644V13.8619V13.8594V13.8568V13.8542V13.8515V13.8488V13.8461V13.8433V13.8405V13.8377V13.8348V13.832V13.8291V13.8261V13.8232V13.8202V13.8172V13.8142V13.8111V13.8079V13.8048V13.8017V13.7984V13.7953V13.792V13.7887V13.7854V13.782V13.7787V13.7753V13.7719V13.7684V13.7649V13.7614V13.7579V13.7543V13.7508V13.7471V13.7435V13.7398V13.7361V13.7324V13.7287V13.7249V13.7211V13.7173V13.7134V13.7095V13.7056V13.7017V13.6977V13.6938V13.6897V13.6857V13.6816V13.6775V13.6734V13.6693V13.6651V13.6609V13.6567V13.6524V13.6482V13.6439V13.6396V13.6353V13.6309V13.6265V13.6221V13.6177V13.6132V13.6087V13.6042V13.5997V13.5952V13.5906V13.586V13.5814V13.5768V13.5721V13.5674V13.5627V13.558V13.5532V13.5484V13.5437V13.5388V13.534V13.5291V13.5242V13.5193V13.5144V13.5095V13.5045V13.4995V13.4944V13.4894V13.4844V13.4793V13.4742V13.4691V13.4639V13.4588V13.4536V13.4484V13.4432V13.438V13.4327V13.4274V13.4221V13.4168V13.4115V13.4061V13.4007V13.3953V13.3899V13.3845V13.379V13.3735V13.3681V13.3625V13.357V13.3514V13.3459V13.3404V13.3347V13.3291V13.3235V13.3179V13.3122V13.3065V13.3008V13.2951V13.2893V13.2836V13.2778V13.272V13.2662V13.2604V13.2545V13.2487V13.2428V13.237V13.231V13.2251V13.2192V13.2132V13.2073V13.2013V13.1953V13.1893V13.1833V13.1772V13.1712V13.1651V13.159V13.1529V13.1468V13.1406V13.1345V13.1284V13.1222V13.116V13.1098V13.1036V13.0973V13.0911V13.0849V13.0786V13.0723V13.066V13.0597V13.0534V13.047V13.0407V13.0344V13.028V13.0216V13.0152V13.0088V13.0024V12.996V12.9895V12.9831V12.9766V12.9701V12.9636V12.9571V12.9506V12.9441V12.9376V12.931V12.9244V12.9178V12.9113V12.9047V12.8981V12.8915V12.8849V12.8783V12.8716V12.865V12.8583V12.8517V12.8449V12.8383V12.8316V12.8249V12.8182V12.8115V12.8047V12.798V12.7912V12.7845V12.7777V12.7709V12.7641V12.7573V12.7506V12.7438V12.737V12.7301V12.7233V12.7164V12.7096V12.7028V12.6959V12.689V12.6821V12.6752V12.6683V12.6614V12.6545V12.6477V12.6408V12.6338V12.6269V12.6199V12.6131V12.6061V12.5991V12.5922V12.5852V12.5782V12.5713V12.5643V12.5573V12.5504V12.5433V12.5363V12.5293V12.5223V12.5153V12.5083V12.5013V12.4942V12.4873V12.4802V12.4732V12.4661V12.4591V12.452V12.445V12.4379V12.4309V12.4238V12.4168V12.4097V12.4026V12.3956V12.3885V12.3814V12.3744V12.3672V12.3602V12.3532V12.346V12.339V12.3319V12.3247V12.3177V12.3106V12.3035V12.2964V12.2893V12.2822V12.2751V12.2681V12.2609V12.2538V12.2468V12.2396V12.2325V12.2254V12.2183V12.2112V12.2041V12.197V12.1899V12.1828V12.1757V12.1686V12.1616V12.1544V12.1473V12.1403V12.1331V12.1261V12.119V12.1119V12.1048V12.0978V12.0906V12.0836V12.0765V12.0694V12.0624V12.0552V12.0482V12.0412V12.0341V12.027V12.0199V12.0129V12.0058V11.9988V11.9918V11.9847V11.9777V11.9707V11.9637V11.9566V11.9496V11.9426V11.9355V11.9286V11.9215V11.9146V11.9075V11.9006V11.8936V11.8866V11.8797V11.8727V11.8657V11.8588V11.8518V11.8448V11.8379V11.831V11.8241V11.8171V11.8102V11.8033V11.7964V11.7895V11.7826V11.7757V11.7688V11.7619V11.7551V11.7482V11.7414V11.7345V11.7277V11.7209V11.7141V11.7072V11.7005V11.6937V11.6869V11.6801V11.6733V11.6665V11.6598V11.6531V11.6464V11.6396V11.6329V11.6262V11.6195V11.6128V11.6061V11.5994V11.5928V11.5861V11.5795V11.5729V11.5662V11.5596V11.553V11.5464V11.5398V11.5332V11.5267V11.5202V11.5136V11.5071V11.5006V11.494V11.4875V11.4811V11.4746V11.4681V11.4617V11.4552V11.4488V11.4424V11.436V11.4297V11.4233V11.4169V11.4105V11.4042V11.3979V11.3916V11.3853V11.379V11.3728V11.3664V11.3602V11.354V11.3477V11.3416V11.3354V11.3292V11.323V11.3169V11.3108V11.3046V11.2985V11.2924V11.2863V11.2803V11.2742V11.2682V11.2622V11.2561V11.2502V11.2442C11.9546 10.636 11.46 10.0002 10.8296 10.0002C10.4365 10.0002 10.0026 10.2257 9.70459 10.7626V10.7648V10.7729V10.7811V10.7892V10.7975V10.8056V10.8138V10.8221V10.8304V10.8386V10.8468V10.8552V10.8635V10.8718V10.8801V10.8884V10.8968V10.9052V10.9135V10.9219V10.9303V10.9387V10.9472V10.9555V10.964V10.9725V10.9809V10.9894V10.9979V11.0064V11.0148V11.0234V11.0319V11.0404V11.049V11.0575V11.0661V11.0747V11.0832V11.0919V11.1004V11.109V11.1177V11.1263V11.1349V11.1436V11.1522V11.1609V11.1695V11.1782V11.1869V11.1956V11.2043V11.213V11.2217V11.2304V11.2391V11.2479V11.2566V11.2653V11.2741V11.2829V11.2916V11.3004V11.3092V11.318V11.3268V11.3355V11.3443V11.3531V11.362V11.3708V11.3796V11.3884V11.3972V11.4061V11.4149V11.4237V11.4326V11.4415V11.4503V11.4591V11.468V11.4769V11.4857V11.4947V11.5035V11.5124V11.5213V11.5301V11.539V11.5479V11.5568V11.5657V11.5746V11.5835V11.5924V11.6013V11.6103V11.6191V11.628V11.6369V11.6459V11.6547V11.6637V11.6726V11.6815V11.6904V11.6993V11.7083V11.7171V11.7261V11.7349V11.7439V11.7528V11.7617V11.7706V11.7795V11.7885V11.7973V11.8063V11.8151V11.8241V11.8329V11.8419V11.8508V11.8597V11.8686V11.8775V11.8864V11.8953V11.9041V11.9131V11.9219V11.9308V11.9397V11.9485V11.9574V11.9663V11.9751V11.984V11.9929V12.0017V12.0106V12.0194V12.0283V12.0371V12.0459V12.0548V12.0636V12.0724V12.0812V12.09V12.0988V12.1076V12.1164V12.1252V12.1339V12.1427V12.1515V12.1603V12.169V12.1778V12.1865V12.1953V12.204V12.2127V12.2214V12.2301V12.2388V12.2475V12.2563V12.2649V12.2736V12.2822V12.2909V12.2996V12.3082V12.3168V12.3254V12.3341V12.3426V12.3513V12.3598V12.3684V12.377V12.3855V12.3941V12.4026V12.4112V12.4197V12.4282V12.4367V12.4451V12.4536V12.4621V12.4706V12.479V12.4875V12.4959V12.5043V12.5127V12.5211V12.5295V12.5378V12.5462V12.5546V12.5629V12.5712V12.5795V12.5878V12.5961V12.6044V12.6126V12.6209V12.6291V12.6373V12.6455V12.6537V12.6619V12.6701V12.6782V12.6864V12.6944V12.7026V12.7107V12.7187V12.7268V12.7349V12.7429V12.751V12.759V12.767V12.7749V12.7829V12.7908V12.7987V12.8066V12.8145V12.8225V12.8303V12.8381V12.846V12.8538V12.8616V12.8694V12.8772V12.8849V12.8926V12.9004V12.908V12.9157V12.9234V12.931V12.9387V12.9463V12.9539V12.9614V12.969V12.9765V12.984V12.9916V12.999V13.0064V13.0139V13.0213V13.0288V13.0361V13.0435V13.0508V13.0581V13.0654V13.0727V13.08V13.0872V13.0945V13.1017V13.1088V13.116V13.1231V13.1303V13.1373V13.1444V13.1515V13.1585V13.1655V13.1724V13.1794V13.1864V13.1933V13.2002V13.207V13.2139V13.2207V13.2275V13.2344V13.2411V13.2478V13.2545V13.2613V13.2679V13.2746V13.2811V13.2877V13.2943V13.3009V13.3074V13.3139V13.3203V13.3268V13.3332V13.3396V13.346V13.3523V13.3586V13.365V13.3712V13.3775V13.3837V13.3898V13.396V13.4022V13.4083V13.4144V13.4204V13.4265V13.4325V13.4384V13.4444V13.4503V13.4563V13.4621V13.4679V13.4738V13.4795V13.4853V13.491V13.4967V13.5024V13.508V13.5137V13.5192V13.5248V13.5303V13.5358V13.5413V13.5468V13.5521V13.5575V13.5628V13.5682V13.5735V13.5787V13.584V13.5892V13.5943V13.5995V13.6045V13.6096V13.6147V13.6197V13.6247V13.6296V13.6345V13.6395V13.6443V13.6491V13.6539V13.6587V13.6634V13.6681V13.6728V13.6774V13.682V13.6866V13.6911V13.6956V13.7V13.7044V13.7089V13.7132V13.7175V13.7219V13.7261V13.7303V13.7345V13.7386V13.7428V13.7469V13.7509V13.755V13.7589V13.7629V13.7668V13.7706V13.7745V13.7783V13.7821V13.7858V13.7895V13.7932V13.7968V13.8004V13.804V13.8074V13.8109V13.8143V13.8177V13.8211V13.8245V13.8277V13.831V13.8342V13.8374V13.8405V13.8436V13.8467V13.8497V13.8527V13.8557V13.8586V13.8614V13.8643V13.8671V13.8698V13.8725V13.8752V13.8778V13.8804V13.883V13.8855V13.888V13.8904V13.8928V13.8952V13.8975V13.8998V13.902V13.9041V13.9063V13.9084V13.9104V13.9125V13.9145V13.9164V13.9183V13.9202V13.922V13.9237V13.9255V13.9271V13.9288V13.9304V13.932V13.9335V13.935V13.9364V13.9378V13.9391V13.9404V13.9416V13.9429V13.944V13.9451V13.9462V13.9473V13.9483V13.9492V13.9501V13.951V13.9518V13.9533V13.9545V13.9556V13.9566V13.9576V13.9584C9.70459 14.3957 9.36881 14.7502 8.95459 14.7502C8.54036 14.7502 8.20459 14.3957 8.20459 13.9585V13.9576V13.9566V13.9556V13.9545V13.9533V13.9518V13.951V13.9501V13.9492V13.9483V13.9473V13.9462V13.9451V13.944V13.9429V13.9416V13.9404V13.9391V13.9378V13.9364V13.935V13.9335V13.932V13.9304V13.9288V13.9271V13.9255V13.9237V13.922V13.9202V13.9183V13.9164V13.9145V13.9125V13.9104V13.9084V13.9063V13.9041V13.902V13.8998V13.8975V13.8952V13.8928V13.8904V13.888V13.8855V13.883V13.8804V13.8778V13.8752V13.8725V13.8698V13.8671V13.8643V13.8614V13.8586V13.8557V13.8527V13.8497V13.8467V13.8436V13.8405V13.8374V13.8342V13.831V13.8277V13.8245V13.8211V13.8177V13.8143V13.8109V13.8074V13.804V13.8004V13.7968V13.7932V13.7895V13.7858V13.7821V13.7783V13.7745V13.7706V13.7668V13.7629V13.7589V13.755V13.7509V13.7469V13.7428V13.7386V13.7345V13.7303V13.7261V13.7219V13.7175V13.7132V13.7089V13.7044V13.7V13.6956V13.6911V13.6866V13.682V13.6774V13.6728V13.6681V13.6634V13.6587V13.6539V13.6491V13.6443V13.6395V13.6345V13.6296V13.6247V13.6197V13.6147V13.6096V13.6045V13.5995V13.5943V13.5892V13.584V13.5787V13.5735V13.5682V13.5628V13.5575V13.5521V13.5468V13.5413V13.5358V13.5303V13.5248V13.5192V13.5137V13.508V13.5024V13.4967V13.491V13.4853V13.4795V13.4738V13.4679V13.4621V13.4563V13.4503V13.4444V13.4384V13.4325V13.4265V13.4204V13.4144V13.4083V13.4022V13.396V13.3898V13.3837V13.3775V13.3712V13.365V13.3586V13.3523V13.346V13.3396V13.3332V13.3268V13.3203V13.3139V13.3074V13.3009V13.2943V13.2877V13.2811V13.2746V13.2679V13.2613V13.2545V13.2478V13.2411V13.2344V13.2275V13.2207V13.2139V13.207V13.2002V13.1933V13.1864V13.1794V13.1724V13.1655V13.1585V13.1515V13.1444V13.1373V13.1303V13.1231V13.116V13.1088V13.1017V13.0945V13.0872V13.08V13.0727V13.0654V13.0581V13.0508V13.0435V13.0361V13.0288V13.0213V13.0139V13.0064V12.999V12.9916V12.984V12.9765V12.969V12.9614V12.9539V12.9463V12.9387V12.931V12.9234V12.9157V12.908V12.9004V12.8926V12.8849V12.8772V12.8694V12.8616V12.8538V12.846V12.8381V12.8303V12.8225V12.8145V12.8066V12.7987V12.7908V12.7829V12.7749V12.767V12.759V12.751V12.7429V12.7349V12.7268V12.7187V12.7107V12.7026V12.6944V12.6864V12.6782V12.6701V12.6619V12.6537V12.6455V12.6373V12.6291V12.6209V12.6126V12.6044V12.5961V12.5878V12.5795V12.5712V12.5629V12.5546V12.5462V12.5378V12.5295V12.5211V12.5127V12.5043V12.4959V12.4875V12.479V12.4706V12.4621V12.4536V12.4451V12.4367V12.4282V12.4197V12.4112V12.4026V12.3941V12.3855V12.377V12.3684V12.3598V12.3513V12.3426V12.3341V12.3254V12.3168V12.3082V12.2996V12.2909V12.2822V12.2736V12.2649V12.2563V12.2475V12.2388V12.2301V12.2214V12.2127V12.204V12.1953V12.1865V12.1778V12.169V12.1603V12.1515V12.1427V12.1339V12.1252V12.1164V12.1076V12.0988V12.09V12.0812V12.0724V12.0636V12.0548V12.0459V12.0371V12.0283V12.0194V12.0106V12.0017V11.9929V11.984V11.9751V11.9663V11.9574V11.9485V11.9397V11.9308V11.9219V11.9131V11.9041V11.8953V11.8864V11.8775V11.8686V11.8597V11.8508V11.8419V11.8329V11.8241V11.8151V11.8063V11.7973V11.7885V11.7795V11.7706V11.7617V11.7528V11.7439V11.7349V11.7261V11.7171V11.7083V11.6993V11.6904V11.6815V11.6726V11.6637V11.6547V11.6459V11.6369V11.628V11.6191V11.6103V11.6013V11.5924V11.5835V11.5746V11.5657V11.5568V11.5479V11.539V11.5301V11.5213V11.5124V11.5035V11.4947V11.4857V11.4769V11.468V11.4591V11.4503V11.4415V11.4326V11.4237V11.4149V11.4061V11.3972V11.3884V11.3796V11.3708V11.362V11.3531V11.3443V11.3355V11.3268V11.318V11.3092V11.3004V11.2916V11.2829V11.2741V11.2653V11.2566V11.2479V11.2391V11.2304V11.2217V11.213V11.2043V11.1956V11.1869V11.1782V11.1695V11.1609V11.1522V11.1436V11.1349V11.1263V11.1177V11.109V11.1004V11.0919V11.0832V11.0747V11.0661V11.0575V11.049V11.0404V11.0319V11.0234V11.0148V11.0064V10.9979V10.9894V10.9809V10.9725V10.964V10.9555V10.9472V10.9387V10.9303V10.9219V10.9135V10.9052V10.8968V10.8884V10.8801V10.8718V10.8635V10.8552V10.8468V10.8386V10.8304V10.8221V10.8138V10.8056V10.7975V10.7892V10.7811V10.7729V10.7648V10.7566V10.7484V10.7403V10.7322V10.7241V10.7161V10.708V10.7V10.6919V10.6839V10.6759V10.6679V10.66V10.652V10.6441V10.6362V10.6283V10.6204V10.6125V10.6047V10.5968V10.589V10.5812V10.5734V10.5656V10.5626V10.5594V10.5563V10.5531V10.5501V10.5469V10.5437V10.5406V10.5374V10.5342V10.5311V10.5279V10.5247V10.5216V10.5183V10.5151V10.5119V10.5086V10.5055V10.5022V10.499V10.4957V10.4925V10.4893V10.486V10.4828V10.4795V10.4762V10.4729V10.4696V10.4664V10.463V10.4597V10.4565V10.4532V10.4498V10.4465V10.4432V10.4399V10.4365V10.4332V10.4298V10.4265V10.4232V10.4197V10.4164V10.413V10.4097V10.4063V10.4029V10.3996V10.3962V10.3927V10.3893V10.3859V10.3825V10.3791V10.3757V10.3723V10.3688V10.3654V10.362V10.3586V10.3551V10.3517V10.3483V10.3449V10.3414V10.3379V10.3345V10.331V10.3275V10.3241V10.3206V10.3171V10.3137V10.3102V10.3067V10.3032V10.2997V10.2962V10.2928V10.2893V10.2857V10.2822V10.2787V10.2753V10.2717V10.2682V10.2647V10.2612V10.2577V10.2541V10.2506V10.2471V10.2436V10.24V10.2366V10.233V10.2294V10.2259V10.2224V10.2188V10.2153V10.2118V10.2082V10.2046V10.2012V10.1976V10.194V10.1905V10.1869V10.1834V10.1799V10.1763V10.1727V10.1692V10.1656V10.1621V10.1585V10.1549V10.1514V10.1478V10.1442V10.1407V10.1371V10.1336V10.13V10.1264V10.1229V10.1193V10.1157V10.1122V10.1086V10.1051V10.1015V10.0979V10.0944V10.0908V10.0872V10.0837V10.08V10.0765V10.0729V10.0694V10.0658V10.0622V10.0587V10.0551V10.0515V10.048V10.0445V10.0409V10.0374V10.0338V10.0302V10.0267V10.0231V10.0196V10.016V10.0124V10.0089V10.0054V10.0018V9.99826V9.99478V9.99122V9.98765V9.98409V9.98061V9.97705V9.97348V9.97V9.96644V9.96295V9.95939V9.95591V9.95235V9.94886V9.9453V9.94182V9.93833V9.93477V9.93129V9.9278V9.92424V9.92076V9.91727V9.91379V9.91031V9.90683V9.90334V9.89986V9.89638V9.89289V9.88941V9.88592V9.88244V9.87904V9.87555V9.87207V9.86859V9.86518V9.8617V9.8583V9.85481V9.85141V9.84793V9.84452V9.84112V9.83771V9.83423V9.83083V9.82742V9.82402V9.82061V9.81721V9.8138V9.8104V9.80707V9.80367V9.80027V9.79694V9.79354V9.79013V9.78681V9.78348V9.78008V9.77675V9.77343V9.7701V9.76678V9.76337V9.76005V9.7568V9.75348V9.75015V9.74683V9.74358V9.74026V9.73693V9.73369V9.73044V9.72712V9.72387V9.72062V9.71738V9.71413V9.71089V9.70764V9.7044V9.70115V9.69798V9.69474V9.69149V9.68832V9.68516V9.68191V9.67875V9.67558V9.67241V9.66925V9.66608V9.66291V9.65975V9.65666V9.65349V9.6504V9.64724V9.64415V9.64106V9.6379V9.63481V9.63172V9.62871V9.62563V9.62254V9.61945V9.61644V9.61335V9.61035V9.60734V9.60433V9.60132V9.59831V9.5953V9.5923V9.58929V9.58636V9.58335V9.58042V9.57749V9.57448V9.57155V9.56862V9.5657V9.56285V9.55992V9.55699V9.55414V9.55121V9.54836V9.54551V9.54266V9.53981V9.53696V9.53411V9.53134V9.52849V9.52572V9.52287V9.5201V9.51732V9.51455V9.51178V9.50909V9.50632V9.50363V9.50086V9.49817V9.49547V9.49278V9.49009V9.4874V9.48471V9.4821V9.4794V9.47679V9.47418V9.47157V9.46895V9.46634V9.46373V9.4612V9.45858V9.45605V9.45352V9.45098V9.44845V9.44592V9.44338V9.44093V9.4384V9.43594V9.43349V9.43103V9.42858V9.42613V9.42375V9.4213V9.41892V9.41655V9.41417V9.4118V9.40942V9.40705V9.40475V9.40237V9.40008V9.39778V9.39549V9.39319V9.39097V9.38868V9.38646V9.38417V9.38195V9.37973V9.3776V9.37538V9.37324V9.37103V9.36889V9.36675V9.36461V9.36247V9.36042V9.35828V9.35622V9.35416V9.3521V9.35005V9.34807V9.34601V9.34403V9.34205V9.34007V9.33809V9.33611V9.33421V9.33223V9.33033V9.32843V9.32653V9.32463V9.32281V9.32091V9.31909V9.31727V9.31545V9.31371V9.31189V9.31015V9.30832V9.30658V9.30484V9.30318V9.30144V9.29978V9.29811V9.29645V9.29479V9.29313V9.29154V9.28988V9.2883V9.28671V9.28521V9.28363V9.28212V9.28054V9.27903V9.27761V9.2761V9.2746V9.27318V9.27175V9.27033V9.2689V9.26755V9.26613V9.26478V9.26344V9.26209V9.26083V9.25948V9.25821V9.25695V9.25568V9.25441V9.25323V9.25204V9.25085V9.24966V9.24847V9.24729V9.24618V9.24507V9.24396V9.24285V9.24182V9.2408V9.23969V9.23874V9.23771V9.23668V9.23573V9.23478V9.23383V9.23288V9.23201V9.23114V9.23027V9.2294V9.22852V9.22773V9.22686V9.22607V9.22457V9.22314V9.22172V9.22037V9.2191V9.21792V9.21681V9.2157V9.21475V9.2138V9.21261V9.21182V9.21087V9.21008V9.20913C8.20459 8.77189 8.54036 8.41683 8.95459 8.41683Z" fill="#00A270"/>
</svg>
