<?xml version="1.0" standalone="no"?>
<!DOCTYPE svg PUBLIC "-//W3C//DTD SVG 20010904//EN"
 "http://www.w3.org/TR/2001/REC-SVG-20010904/DTD/svg10.dtd">
<svg version="1.0" xmlns="http://www.w3.org/2000/svg"
 width="225.000000pt" height="225.000000pt" viewBox="0 0 225.000000 225.000000"
 preserveAspectRatio="xMidYMid meet">

<g transform="translate(0.000000,225.000000) scale(0.100000,-0.100000)"
fill="#00a270" stroke="none">
<path d="M924 2180 c-181 -42 -355 -141 -485 -276 -93 -97 -129 -149 -184
-267 -129 -275 -124 -596 12 -859 25 -48 33 -73 28 -90 -4 -13 -43 -128 -87
-257 -43 -129 -77 -235 -75 -237 2 -2 124 34 270 81 l267 85 59 -30 c33 -16
100 -42 148 -57 82 -25 101 -27 268 -27 167 0 186 2 268 27 291 90 522 295
637 564 54 128 74 231 74 383 0 152 -20 254 -75 386 -93 222 -291 422 -516
518 -134 57 -192 68 -368 72 -130 3 -175 0 -241 -16z m427 -159 c93 -24 213
-83 295 -145 251 -189 371 -514 305 -831 -74 -355 -380 -617 -757 -650 -138
-12 -322 30 -452 102 l-53 30 -155 -50 c-85 -27 -157 -48 -159 -45 -3 3 18 72
46 154 l51 150 -31 48 c-78 124 -121 278 -121 436 0 304 155 570 423 724 172
99 408 129 608 77z"/>
<path d="M770 1687 c-34 -17 -87 -90 -101 -140 -20 -68 -15 -145 13 -215 65
-160 233 -367 373 -461 40 -27 122 -68 182 -92 92 -37 118 -43 178 -43 112 1
200 55 225 139 24 82 18 91 -113 159 l-118 61 -62 -68 c-34 -37 -68 -67 -76
-67 -26 0 -147 71 -199 116 -76 66 -172 197 -172 233 0 6 20 33 45 61 25 28
45 57 45 65 0 27 -83 240 -98 253 -20 16 -90 15 -122 -1z"/>
</g>
</svg>
